<svg xmlns="http://www.w3.org/2000/svg" xmlns:xlink="http://www.w3.org/1999/xlink" version="1.1" width="1266.40895" height="629.96904" viewBox="0,0,1266.40895,629.96904"><g><g data-paper-data="{&quot;isPaintingLayer&quot;:true}" fill-rule="nonzero" stroke-linecap="butt" stroke-linejoin="miter" stroke-miterlimit="10" stroke-dasharray="" stroke-dashoffset="0" style="mix-blend-mode: normal"><path d="M 939.693 69.4798 C 940.8397 69.966 941.3904 71.3276 942.4046 72.0507 C 947.8532 75.9357 947.9419 78.9814 951.1118 84.3867 C 951.7833 85.5318 953.8635 86.2707 954.5042 87.4539 C 966.3645 109.3576 960.74 138.5849 967.2176 161.5058 C 968.0079 164.3023 971.7561 178.8807 972.6777 180.2209 C 976.1867 185.3236 980.0556 190.1567 984.0464 194.8982 L 985.3365 194.8157 L 988.3393 196.5775 L 992.9105 198.032 L 997.3439 201.8609 L 998.2496 202.3923 L 998.5238 202.8799 L 1001.5042 205.4539 L 1002.9229 210.7028 L 1004.0313 212.6739 C 1007.0561 211.3791 1010.566 208.7963 1013.5543 208.9332 C 1022.3759 209.3373 1029.496 213.6833 1033.5914 220.1938 L 1241.1352 217.9085 L 1245.0455 218.2561 L 1245.3215 218.3406 L 1247.1495 218.3748 L 1250.7952 220.0161 L 1253.6689 220.8957 L 1254.7188 221.7825 L 1257.5036 223.0362 L 1258.9219 225.3324 L 1262.3438 228.2225 L 1263.72 233.1006 L 1265.3713 235.774 L 1265.46 239.268 L 1266.409 242.6318 L 1265.6226 245.674 L 1265.7512 250.7408 L 1263.3375 254.514 L 1262.6621 257.127 L 1260.3729 259.1485 L 1259.6323 260.3062 L 1257.1475 261.9966 L 1254.1506 264.6431 L 1252.4146 265.2166 L 1252.176 265.3789 L 1248.5436 266.8678 L 1112.365 307.4078 L 1116.2571 310.4435 L 1116.4025 310.8914 L 1116.8778 311.2947 L 1119.0196 318.9525 L 1120.8802 324.6835 L 1120.7675 325.202 L 1120.9105 325.713 L 1119.3894 331.5434 L 1117.7006 339.3137 L 1117.2498 339.7441 L 1117.1309 340.1998 L 1112.6186 344.1664 L 1109.4882 347.1555 L 1109.0181 347.3313 L 1108.6025 347.6967 L 1104.0685 349.1831 L 1101.0417 350.3156 L 1100.2508 350.4348 L 1100.0331 350.5062 L 1099.1129 350.6064 L 1097.1599 350.9008 L 1095.7551 350.971 L 1095.1366 352.5359 L 1094.8653 355.5597 L 1092.7808 358.4959 L 1090.7491 363.636 L 1087.6044 365.7869 L 1086.1982 367.7676 L 1082.8989 369.0055 L 1081.3767 370.0466 L 1078.722 370.5726 L 1075.5668 371.7564 L 1073.2727 371.6522 L 1072.5304 371.7993 L 1068.605 371.7491 L 1031.3133 367.5377 C 1031.1699 370.4408 1030.9866 373.6183 1030.7776 376.9395 L 1031.7292 377.7878 L 1031.9263 378.5655 L 1032.6794 379.3398 L 1033.9388 386.3794 L 1054.6052 390.2811 L 1056.3686 390.8001 L 1057.1359 390.9831 L 1057.375 391.0963 L 1058.3712 391.3896 L 1061.0963 392.8594 L 1065.2857 394.8443 L 1065.7503 395.3697 L 1066.3085 395.6707 L 1068.9178 398.9519 L 1072.8075 403.3507 L 1072.8842 403.9394 L 1073.3762 404.5581 L 1073.9805 412.3536 L 1074.7419 418.1969 L 1074.4815 418.8157 L 1074.5334 419.485 L 1071.9673 424.7896 L 1068.9343 431.9963 L 1068.2722 432.4282 L 1068.0137 432.9625 L 1062.9348 435.9095 L 1059.4235 438.1998 L 1058.7989 438.3093 L 1058.1923 438.6613 L 1053.5905 439.223 L 1050.5409 439.758 L 1049.503 439.7219 L 1049.2404 439.754 L 1048.4546 439.6855 L 1046.6175 439.6216 L 1028.8149 437.2145 L 1029.729 440.6855 L 1031.4105 446.907 L 1031.3886 446.9877 L 1031.4099 447.0686 L 1029.6883 453.2791 L 1027.5042 461.3601 L 1027.4304 461.4239 L 1027.4103 461.4962 L 1023.266 465.0289 C 1020.2618 472.7365 1014.8408 478.9427 1004.9958 481.8598 C 1003.2221 482.3854 999.392 482.0381 997.4105 481.907 C 987.2508 481.2351 981.2433 477.9014 977.4446 471.907 L 907.8743 471.907 L 930.8225 479.031 L 934.4373 480.5622 L 936.3078 481.8669 L 939.6772 483.6675 L 940.6767 484.9143 L 941.834 485.7215 L 942.0495 486.0672 L 981.0592 500.4507 L 984.5891 502.1685 L 986.1392 503.3748 L 989.1844 505.108 L 990.3635 506.6621 L 991.7063 507.7071 L 993.1853 510.3813 L 996.0477 514.1541 L 996.1328 515.7107 L 997.2018 517.6436 L 996.6035 524.3269 L 996.8645 529.1035 L 996.3035 530.1987 L 1138.8579 581.3774 L 1142.4024 583.065 L 1143.6011 583.9814 L 1146.3162 585.368 L 1147.8953 587.2645 L 1149.5667 588.5423 L 1150.8441 590.8059 L 1153.582 594.0941 L 1153.7725 595.9953 L 1155.1472 598.4315 L 1154.6422 604.675 L 1155.0746 608.9912 L 1154.1246 611.0733 L 1153.9401 613.3544 L 1151.4599 616.9132 L 1148.8597 622.612 L 1146.4724 624.0699 L 1145.3799 625.6376 L 1141.387 627.1756 L 1139.1689 628.5302 L 1137.0867 628.832 L 1134.7838 629.7191 L 1131.7372 629.6075 L 1130.2439 629.8239 L 1126.3263 629.5712 L 661.3263 552.5712 L 657.5363 551.5476 L 656.8954 551.2203 L 654.6947 550.7092 L 651.9386 548.689 L 649.5047 547.4461 L 648.3485 546.0575 L 645.5364 543.9962 L 644.7099 541.6876 L 642.2389 538.72 L 641.6915 533.2566 L 640.4901 529.9007 L 641.0526 526.8801 L 640.7463 523.8229 L 642.226 520.58 L 643.2313 515.1821 L 645.9433 512.433 L 646.9612 510.202 L 649.9369 508.3848 L 651.2058 507.0985 L 653.7357 506.0648 L 656.652 504.2838 L 658.888 503.9597 L 659.5542 503.6875 L 663.4168 502.9866 L 680.5921 501.6126 L 640.318 485.786 L 638.2078 486.6406 L 636.3813 486.605 L 633.8529 486.9031 L 530.4218 488.7337 L 531.4778 490.2698 L 531.5245 496.2536 L 532.3759 500.221 L 531.5746 502.6671 L 531.5948 505.241 L 529.5781 508.7621 L 527.7154 514.4488 L 525.2068 516.3949 L 524.1541 518.2328 L 520.5704 519.9915 L 518.7435 521.4088 L 516.4751 522.0012 L 513.9604 523.2353 L 511.2013 523.3786 L 510.0179 523.6877 L 506.0965 523.8724 L 487.0965 522.8724 L 484.8873 522.5335 L 482.6717 522.2394 L 431.3667 510.1392 L 32.5435 628.8678 L 28.6882 629.6079 L 26.518 629.5673 L 22.8296 629.969 L 21.1841 629.4675 L 19.6715 629.4392 L 16.696 628.0997 L 11.9678 626.6587 L 11.0921 625.5768 L 9.3173 624.7779 L 5.685 618.8971 L 2.548 615.0217 L 2.3016 613.4194 L 1.4497 612.0401 L 1.3231 607.0558 L 0.2727 600.2239 L 1.1051 598.4646 L 1.0697 597.0732 L 3.7333 592.9094 L 5.1288 589.9597 L 6.2617 588.9569 L 7.1886 587.5078 L 10.2563 585.4209 L 11.8815 583.9822 L 15.2957 582.0445 L 284.1423 463.1026 L 276.7119 460.3449 L 276.0712 460.0314 L 274.7093 459.716 L 273.2633 458.6575 L 273.1856 458.6195 L 272.8054 458.3223 L 265.5468 453.009 L 264.6063 450.3874 L 260.6059 443.1176 L 260.8893 440.0259 L 260.4914 438.9166 L 261.4787 433.5966 L 261.9726 428.2084 L 262.6567 427.2488 L 263.2232 424.1963 L 269.0468 418.2854 L 270.6636 416.0175 L 276.9949 413.6562 L 252.6296 412.8948 L 250.7687 412.6498 L 248.9961 412.7118 L 242.0226 410.0124 L 240.2333 409.3809 L 240.1186 409.2754 L 238.4067 408.6127 L 236.6544 406.0893 L 231.8756 401.6942 L 231.4144 399.7485 L 227.8025 398.1628 L 120.351 397.907 L 116.4457 397.507 L 115.2859 397.135 L 112.5439 396.842 L 110.0948 395.4697 L 107.8584 394.7522 L 106.116 393.2401 L 102.638 391.2912 L 101.6855 389.3954 L 99.2824 387.3099 L 97.7362 381.5344 L 95.9168 377.913 L 96.0775 375.3389 L 95.4105 372.8475 L 96.4772 368.9377 L 96.8498 362.9705 L 98.7928 360.4506 L 99.3512 358.4037 L 102.3747 355.8051 L 103.7834 353.9781 L 105.8336 352.8322 L 107.9626 351.0023 L 110.5924 350.1725 L 111.6556 349.5783 L 115.4045 348.4134 L 119.9143 347.4917 L 13.8803 291.0906 L 12.9105 290.782 L 11.3296 289.4167 L 10.4049 288.7996 L 9.2684 287.6366 L 4.3167 283.3602 L 3.9094 281.8531 L 0 271.7614 L 0.5418 269.393 L 0.4105 268.9071 L 1.9893 263.0655 L 3.3387 257.1667 L 3.6828 256.7994 L 4.3167 254.4539 L 12.5075 247.3801 L 13.5748 246.2409 L 19.9547 244.7907 L 21.5042 244.2977 L 22.6104 244.1871 L 24.6474 243.7241 L 25.6485 243.9071 L 73.5544 243.9071 L 21.0124 234.5171 L 18.9432 233.9299 L 17.8759 233.658 L 17.7276 233.585 L 17.2358 233.4454 L 14.2226 231.8579 L 9.7863 229.672 L 9.5498 229.3961 L 9.2571 229.2418 L 6.4201 225.745 L 2.3963 221.0508 L 2.3608 220.7415 L 2.1031 220.4238 L 1.3964 212.3324 L 0.6904 206.1767 L 0.8308 205.8569 L 0.8004 205.5089 L 3.4441 199.9052 L 6.7095 192.4682 L 7.0555 192.25 L 7.1884 191.9684 L 12.5056 188.8135 L 16.3145 186.4117 L 16.6413 186.3596 L 16.9538 186.1742 L 21.8568 185.5271 L 25.2201 184.9903 L 25.7307 185.0159 L 25.8946 184.9943 L 26.9927 185.0792 L 29.1409 185.1869 L 189.0529 209.3185 L 187.2936 204.6551 L 184.9368 200.0099 L 185.0179 198.6229 L 184.5275 197.3229 L 185.3943 192.1867 L 185.8107 185.0638 L 186.8187 183.7457 L 187.0188 182.5599 L 190.5876 178.8175 L 192.7086 176.044 L 193.8422 175.4046 L 194.8551 174.3423 L 195.0676 174.2513 L 98.4328 157.5901 L 97.1572 157.2365 L 96.8874 157.1883 L 96.6804 157.1043 L 94.6497 156.5414 L 92.354 155.3498 L 88.5302 153.7991 L 87.643 152.9045 L 86.6455 152.3867 L 84.3091 149.5426 L 80.5346 145.7364 L 80.3411 144.7123 L 79.4377 143.6126 L 78.7563 136.3247 L 77.7549 131.025 L 78.1553 129.8973 L 78.0439 128.7059 L 79.5047 125.56 L 18.111 106.8177 L 16.9579 106.3356 L 16.7663 106.2771 L 16.6061 106.1886 L 14.4891 105.3035 L 12.4208 103.8753 L 8.8733 101.9146 L 8.0498 100.857 L 7.0682 100.1791 L 5.1454 97.1269 L 1.8972 92.9552 L 1.8232 91.8529 L 1.0159 90.5715 L 1.2502 83.3271 L 0.8934 78.0172 L 1.4588 76.8784 L 1.4999 75.6076 L 4.3279 71.0993 L 7.5511 64.6073 L 8.8688 63.8607 L 9.4559 62.9248 L 14.2919 60.7879 L 17.4305 59.0096 L 18.6161 58.8773 L 19.8422 58.3355 L 23.8951 58.2879 L 26.3931 58.009 L 28.6769 58.2316 L 28.8598 58.2295 L 29.0564 58.2686 L 30.3003 58.3899 L 90.1765 70.332 L 91.9311 69.4707 L 92.5343 68.8781 L 95.4832 67.7269 L 99.8572 65.5797 L 101.5982 65.489 L 104.8083 64.9584 L 110.2532 64.6088 L 110.8321 62.7292 L 112.0084 61.7826 L 112.4352 60.7671 L 116.8653 57.8744 L 119.6787 55.6106 L 120.824 55.2896 L 121.9429 54.559 L 125.9385 53.8561 L 128.3623 53.1767 L 130.6423 53.0286 L 130.8248 52.9964 L 131.0288 53.0034 L 132.2798 52.9221 L 368.9396 61.1564 L 498.9404 63.9126 L 501.2666 64.1952 L 501.5511 64.1883 L 502.1912 64.3075 L 502.8375 64.386 L 503.1068 64.478 L 505.4105 64.907 L 509.2947 66.0399 L 605.0282 69.3709 L 793.9451 1.3839 L 796.9577 0.6282 L 798.615 0 L 803.607 0.2097 L 806.7648 0.0916 L 807.4975 0.3732 L 809.96 0.4766 L 812.3361 2.2327 L 817.364 4.165 L 819.9359 7.8494 L 822.0003 9.3751 L 823.6071 13.1087 L 825.9336 16.4416 L 826.1425 19.0001 L 827.9188 23.1273 L 826.9117 28.4188 L 827.1522 31.3636 L 825.9426 33.511 L 825.7958 34.2821 L 824.0315 36.9037 L 821.5793 41.257 L 820.7319 41.9059 L 933.3076 18.4333 L 937.2114 18.0184 L 939.4657 18.2503 L 943.2711 18.1858 L 944.7654 18.7954 L 946.1823 18.9411 L 949.1192 20.5716 L 953.7848 22.475 L 954.5141 23.5666 L 956.11 24.4526 L 959.2799 30.7003 L 962.1017 34.9241 L 962.1947 36.4452 L 962.8842 37.8041 L 962.5877 42.8751 L 963.0151 49.8679 L 962.0869 51.4397 L 962.0102 52.7503 L 958.9492 56.7529 L 957.2411 59.6454 L 956.0927 60.4881 L 955.1123 61.77 L 951.7975 63.64 L 949.9704 64.9807 L 946.3934 66.5982 L 938.7435 69.1759 C 939.0673 69.2512 939.3847 69.3491 939.693 69.4798 Z M 934.9177 360.2334 L 936.0148 360.329 C 936.0109 360.1894 936.0069 360.0499 936.003 359.9103 Z M 814.2994 521.4516 L 813.6784 527.0506 L 813.6335 527.111 L 862.0686 535.1315 L 814.9051 518.1992 Z M 177.3209 321.3938 L 199.6477 331.1958 L 270.4831 316.7185 L 190.8037 293.907 L 125.6458 293.907 Z M 1063.2164 269.8706 L 1035.8318 270.1722 C 1035.7116 272.8251 1035.5908 275.4779 1035.4696 278.1308 Z " stroke-width="0.5" fill="#000000" stroke="none"/></g></g></svg>