<svg version="1.1" xmlns="http://www.w3.org/2000/svg" xmlns:xlink="http://www.w3.org/1999/xlink" width="555.0978" height="445.39633" viewBox="0,0,555.0978,445.39633"><g transform="translate(38.79332,50.846)"><g data-paper-data="{&quot;isPaintingLayer&quot;:true}" fill="#000000" fill-rule="nonzero" stroke="none" stroke-width="0.5" stroke-linecap="butt" stroke-linejoin="miter" stroke-miterlimit="10" stroke-dasharray="" stroke-dashoffset="0" style="mix-blend-mode: normal"><path d="M187.02414,-35.43134l1.86298,-3.45553l0.53829,-0.63541l1.07016,-2.1174l2.50756,-2.10578l1.71332,-2.02242l1.71771,-0.85885l2.757,-2.31525l2.36808,-0.24729l3.31346,-1.65673l5.55371,0.73075l3.65546,-0.38173l2.69892,1.21783l2.93566,0.38627l2.90629,2.2498l5.10585,2.30392l1.94404,3.15349l1.88276,1.45746l1.12418,3.42018l1.0078,1.63478l0.39122,2.62157l1.02247,3.11074l-0.20553,2.36355l0.12292,0.82365l-0.23636,3.91861l-1.79844,11.15035c1.10833,0.06925 2.21689,0.1352 3.32572,0.19764c16.26979,0.91622 32.59115,-0.01955 48.88671,0c9.65389,0.01158 20.02841,1.35581 29.10454,1.3576c8.00673,0.00158 16.78893,-1.34332 25.13074,-1.3576c13.24401,-0.02267 26.52259,0.95582 39.73209,0c6.18199,-0.44732 25.01167,-5.48835 36.75357,-5.56259c9.73635,-0.06157 19.4851,0.48349 29.20963,0c10.97907,-0.54587 31.42981,-6.54537 43.08824,0.3437c11.63414,6.87472 15.11166,20.79449 10.43257,31.88084c0.94895,2.23226 1.93441,4.45019 2.87709,6.68455c8.35662,19.80705 12.7398,46.00847 11.57505,66.91333c-0.20761,3.72624 -2.43672,7.28702 -2.65017,10.84537c-0.24705,4.11857 0.33417,8.66918 -0.38931,12.85366c-2.13928,12.37328 -5.48807,24.5784 -6.62213,37.08394c-1.52482,16.8145 -1.13197,33.75066 -1.33245,50.63297c-0.24371,20.52251 -1.15187,41.08026 0,61.57187c0.59429,10.57227 3.51128,20.88487 5.22244,31.33465c2.6977,16.47445 1.89557,37.05689 1.7308,52.78267c-0.00081,0.07714 -0.00192,0.15419 -0.00333,0.23114c5.81695,6.42982 8.65236,16.18915 6.56594,24.53484c-0.89879,3.59515 -1.09344,7.74224 -3.51562,10.54688c-6.82495,7.90257 -13.73988,9.81875 -24.22583,10.54688c-4.01169,0.27856 -12.03458,1.37352 -17.72764,1.39065c-1.5358,0.00462 -25.27184,1.06507 -36.47643,-0.19305c-33.81666,-3.79715 -67.45216,-8.5563 -101.28206,-12.48756c-14.06537,-1.63449 -27.91479,-5.66604 -42.07343,-5.86358c-20.06474,-0.27994 -33.85717,4.60365 -51.0157,4.63771c-19.44348,0.0386 -38.91149,0.94042 -58.33055,-0.03455c-12.83959,-0.64464 -36.50543,-3.6574 -49.97422,-2.74674c-7.34249,0.49644 -14.03226,2.9134 -21.29122,3.78132c-6.9671,0.83302 -13.33411,0.07272 -20.73779,0.39063c-13.56291,0.58237 -23.11429,2.14803 -37.48115,1.34751c-7.63723,-0.42555 -15.2635,-1.07261 -22.90763,-1.34751c-5.2661,-0.18938 -10.56194,-0.62074 -15.80803,-0.12456c-0.76123,0.072 -1.50611,0.63886 -2.2483,0.45501c-8.94028,-2.21461 -15.74187,-7.55192 -19.77179,-15.61175c-5.9561,-11.9122 -2.79245,-31.58685 -3.125,-42.41585c-0.31497,-10.2566 -2.98289,-21.04887 -4.01904,-31.29319c-1.5402,-15.22789 -1.00565,-30.79095 -0.10422,-46.03969c0.72462,-12.25778 1.29995,-29.73811 2.96186,-42.14717c1.39616,-10.42482 6.11013,-38.77997 5.23972,-51.25679c-0.07642,-1.09545 -2.09319,-0.8712 -2.83116,-1.68436c-4.17779,-4.60344 -6.66689,-9.21962 -8.30813,-15.04227c-4.11681,-14.60524 -6.10463,-29.09545 -6.74196,-44.41764c-0.35778,-8.6015 -2.09331,-19.15379 -0.10356,-27.80158c1.54404,-6.71066 4.58016,-10.08112 7.8194,-15.63419c4.25891,-7.30113 6.66342,-14.86093 9.02894,-22.98597c-0.90556,0.01803 -1.87656,0.00334 -2.89244,-0.04855c-0.48697,0.02827 -0.97767,0.0426 -1.47173,0.0426c-3.86088,0 -7.51735,-0.8752 -10.78183,-2.43803c-5.11717,-1.89893 -9.48522,-5.05002 -10.81045,-9.9534c-2.16617,-3.70159 -3.40772,-8.01009 -3.40772,-12.60856c0,-3.13655 0.57762,-6.13819 1.63228,-8.90435c0.44467,-1.99787 1.0954,-3.89822 2.27397,-5.54877c2.34089,-3.27836 5.19991,-5.52766 8.39098,-7.08375c3.72262,-2.20039 8.06523,-3.46312 12.70277,-3.46312c0.70317,0 1.39956,0.02903 2.08803,0.08596c0.4281,-0.03141 0.85714,-0.05989 1.28685,-0.08596c2.76577,-0.16777 5.53282,-0.38815 8.30069,-0.64185c0.36381,-0.72721 0.76762,-1.44594 1.21563,-2.15528c4.36686,-6.91419 10.40806,-10.67557 18.38114,-12.83046c2.96846,-0.80229 6.04889,1.12336 9.0416,1.82985c2.99271,0.70648 6.6091,0.36174 8.90538,2.40686c2.23262,1.98843 3.88058,4.54724 5.85631,6.79328c5.69902,-0.15534 11.39162,-0.024 17.07389,0.56302c35.19204,3.63556 70.35393,7.56211 105.55482,11.11103c4.97285,0.50136 9.94407,1.0284 14.91505,1.56117z"/></g></g></svg>