<svg xmlns="http://www.w3.org/2000/svg" xmlns:xlink="http://www.w3.org/1999/xlink" version="1.1" width="1542.41259" height="861.3654" viewBox="0,0,1542.41259,861.3654"><g><g data-paper-data="{&quot;isPaintingLayer&quot;:true}" fill-rule="nonzero" stroke-linecap="butt" stroke-linejoin="miter" stroke-miterlimit="10" stroke-dasharray="" stroke-dashoffset="0" style="mix-blend-mode: normal"><path d="M 356.1495 499.9755 L 353.7952 497.0212 L 353.5465 496.6358 L 351.3299 494.445 L 350.6614 491.0914 L 348.9078 486.4992 L 338.1347 487.3649 L 336.2227 487.7336 L 343.3665 491.6235 L 346.0881 493.9485 L 346.1949 494.0117 L 346.2249 494.0654 L 346.3513 494.1735 L 347.6058 495.4825 Z M 1316.337 602.8469 L 1341.8525 517.1878 L 1305.3359 520.5075 L 1288.299 599.6073 Z M 1400.976 488.2336 L 1401.0501 492.2303 L 1400.3093 496.0855 L 1358.2673 637.2266 L 1356.7778 640.8588 L 1354.8941 643.6267 L 1353.603 646.8685 L 1351.899 648.0276 L 1351.7039 648.3143 L 1347.924 650.7315 L 1344.2142 653.2549 L 1343.8737 653.3215 L 1342.1375 654.4317 L 1338.6492 654.3426 L 1335.3634 654.9848 L 1331.4381 654.9245 L 1277.7214 648.7177 L 1270.4087 682.6694 L 1263.1842 836.9647 L 1262.6113 840.8484 L 1262.5942 840.8946 L 1262.5029 842.4809 L 1260.5596 846.3858 L 1259.478 849.3049 L 1258.6974 850.1275 L 1257.4437 852.6466 L 1254.9922 854.0325 L 1251.6623 857.5421 L 1246.9418 858.5837 L 1244.4105 860.0147 L 1240.6828 859.9648 L 1237.0423 860.7681 L 1234.2738 859.879 L 1229.4402 859.8142 L 1225.4689 857.0512 L 1222.7877 856.1901 L 1221.0501 853.9769 L 1220.1192 853.3292 L 1218.4692 850.6894 L 1215.7759 847.2586 L 1215.3654 845.7236 L 1215.3393 845.6818 L 1213.9923 841.9944 L 1212.2803 835.3056 L 1211.0813 837.7684 L 1210.887 839.3233 L 1209.6008 840.7932 L 1207.5772 844.0737 L 1201.357 850.6035 L 1190.9222 855.0815 L 1188.8426 854.6835 L 1186.8355 855.3576 L 1175.8932 852.3241 L 1168.8511 846.6905 L 1166.4045 843.712 L 1164.9323 842.4285 L 1164.5306 840.9139 L 1142.3352 807.6209 L 1142.2589 807.4771 L 1141.4279 806.5401 L 1140.8693 804.8615 L 1140.4935 804.154 L 1139.6007 801.0488 L 1138.5807 797.9831 L 1138.4905 797.187 L 1138.0017 795.4868 L 1138.157 794.2441 L 1138.1387 794.0823 L 1137.7436 764.0563 L 1132.6357 764.7809 L 1122.4287 759.8056 L 1121.0536 758.2153 L 1118.7849 757.003 L 1116.8736 753.381 L 1116.5301 752.9838 L 1114.6324 749.5473 L 1113.6891 747.3464 L 1113.4854 746.9604 L 1113.4765 746.8502 L 1082.9066 675.5205 L 1067.0349 680.7585 L 1066.7137 685.2556 L 1067.0772 686.5066 L 1066.4953 688.3123 L 1066.4514 688.9279 L 1065.7834 692.7964 L 1062.4437 701.1735 L 1054.4284 709.2166 L 1052.6724 709.5592 L 1051.3405 710.7539 L 1040.0914 712.3011 L 1031.3941 709.9163 L 1027.9048 708.1173 L 1027.3871 707.7813 L 1025.5956 707.1571 L 1024.8165 706.113 L 1013.1505 698.5417 L 823.0491 761.2798 L 766.3534 800.9668 L 734.9607 832.3595 L 723.1322 849.4452 L 722.5528 851.2423 L 713.6134 858.244 L 713.3015 858.3271 L 713.0459 858.5242 L 702.052 861.3654 L 700.273 860.7329 L 686.7838 860.086 L 683.2464 859.5601 L 681.3522 859.4215 L 677.9929 857.6839 L 674.4479 856.3658 L 673.0716 855.057 L 670.3037 852.7924 L 649.9401 832.4288 L 580.5194 859.129 L 577.914 859.8431 L 576.2358 860.5494 L 570.8113 860.5172 L 567.7308 860.6996 L 567.1635 860.4956 L 564.881 860.482 L 562.3984 858.7822 L 557.0455 856.8574 L 554.4991 853.3732 L 552.5278 852.0234 L 551.9276 850.7567 L 525.3258 859.5359 L 521.494 860.3892 L 516.8837 860.4386 L 513.5106 861.054 L 507.7751 858.5337 L 501.9894 856.1311 L 500.1025 853.2683 L 496.9515 849.9026 L 494.9194 846.5437 L 435.7177 722.2203 L 426.3798 732.4921 L 423.4631 735.1197 L 422.1624 735.873 L 419.847 737.847 L 417.4841 738.5823 L 415.659 739.6392 L 413.0847 739.9513 L 409.0047 741.2209 L 407.1711 740.6681 L 404.3865 741.0056 L 398.8178 738.1499 L 394.6702 736.8995 L 393.1061 735.2208 L 391.0644 734.1738 L 388.7304 730.5244 L 384.4642 725.9456 L 384.0295 723.1745 L 382.9976 721.5612 L 383.1064 717.2896 L 382.7045 714.7278 L 383.2237 712.6836 L 383.2867 710.2098 L 384.5544 707.4438 L 384.9244 705.987 L 386.657 702.4643 L 405.7999 671.7101 L 244.7009 673.5725 L 244.4204 674.3812 L 241.9655 676.2181 L 237.9412 681.0107 L 234.094 682.1081 L 232.4331 683.3509 L 227.9161 683.8702 L 223.5438 685.1173 L 221.5338 684.6039 L 217.5593 685.0609 L 212.0084 682.1709 L 209.0378 681.4122 L 207.7362 679.9467 L 207.4875 679.8172 L 205.8942 677.8729 L 202.508 674.0603 L 197.4098 674.1192 L 98.0134 771.106 L 97.1638 771.7839 L 94.8952 774.3827 L 91.508 775.279 L 86.8843 777.5991 L 81.502 777.9266 L 80.4216 778.2125 L 79.7681 778.0321 L 75.5502 778.2888 L 71.0397 775.6235 L 65.9894 774.2298 L 63.2444 771.0172 L 62.6607 770.6723 L 62.116 769.6966 L 58.6131 765.5969 L 57.0707 760.6591 L 55.3627 757.5997 L 55.6567 754.1626 L 55.5542 753.0806 L 55.9634 675.7544 L 25.2873 676.1091 L 21.3768 675.7636 L 20.4458 675.4792 L 17.9393 675.2962 L 15.1849 673.872 L 12.7521 673.1288 L 11.1763 671.7994 L 7.8528 670.081 L 6.7571 668.0711 L 4.0731 665.8068 L 2.5117 660.2838 L 0.6864 656.9358 L 0.7677 654.1152 L 0 651.3998 L 0.9523 647.7074 L 1.1175 641.9704 L 3.1672 639.119 L 3.7389 636.9024 L 6.542 634.4244 L 7.7454 632.7504 L 9.923 631.4355 L 12.2463 629.3817 L 14.6322 628.5921 L 15.4655 628.0889 L 19.1732 626.7988 L 56.2694 617.9107 L 56.8405 509.9689 L 27.0008 512.3668 L 24.906 512.3259 L 23.8604 512.3386 L 23.6765 512.302 L 23.0758 512.2903 L 19.8118 511.5334 L 15.0154 510.5794 L 14.6659 510.3401 L 14.2907 510.253 L 10.7026 507.625 L 5.6477 504.1621 L 5.5148 503.8251 L 5.13 503.5434 L 2.4078 495.9482 L 0.1542 490.2346 L 0.2159 489.8325 L 0.0787 489.4496 L 1.2011 483.411 L 2.4246 475.436 L 2.7485 475.086 L 2.8147 474.73 L 7.1163 470.3665 L 7.8533 469.57 L 5.3999 467.8349 L 3.4306 462.6148 L 1.3757 459.5946 L 1.1684 456.6183 L 0.1153 453.8269 L 0.7232 450.2248 L 0.3356 444.6591 L 2.208 441.426 L 2.6066 439.0639 L 5.0754 436.475 L 6.0264 434.833 L 8.1635 433.2367 L 10.443 430.8463 L 12.6027 429.9209 L 13.2516 429.4362 L 16.8148 427.7884 L 73.875 408.0211 L 61.7483 401.6437 L 60.7853 401.3488 L 59.1796 399.9923 L 58.1345 399.3018 L 56.995 398.1467 L 52.1112 394.0209 L 51.7617 392.7812 L 47.6496 382.3128 L 48.1629 380.0193 L 48.0478 379.6112 L 49.5816 373.6805 L 50.9196 367.7026 L 51.208 367.3918 L 51.7965 365.1164 L 60.228 357.6729 L 61.1042 356.7287 L 67.3316 355.2824 L 67.804 355.1264 L 66.5392 350.5876 L 64.6372 345.2298 L 64.8026 344.3552 L 64.5636 343.4977 L 66.0042 337.9978 L 67.4179 330.5186 L 68.1589 329.7715 L 68.3571 329.0146 L 72.6115 325.2821 L 75.4141 322.4564 L 76.1916 322.1411 L 76.8928 321.526 L 81.0983 320.1517 L 83.7715 319.0678 L 85.1916 318.8141 L 85.465 318.7247 L 86.0368 318.663 L 87.6361 318.3773 L 248.248 305.9616 L 246.1227 300.4657 L 243.7143 295.5891 L 243.7937 294.4428 L 243.3793 293.3711 L 243.68 291.495 L 26.9157 308.1692 L 22.991 308.0793 L 20.9819 307.6062 L 17.3946 307.2626 L 15.7806 306.3813 L 14.2129 306.0121 L 11.673 304.1384 L 7.4285 301.8208 L 6.7502 300.5069 L 5.0752 299.2712 L 2.8002 292.8548 L 0.561 288.5171 L 0.6498 286.7901 L 0.0719 285.1603 L 0.9804 280.364 L 1.3302 273.5652 L 2.583 271.9029 L 2.8582 270.4501 L 6.265 267.0178 L 8.1647 264.4973 L 9.5619 263.6962 L 10.8574 262.391 L 14.1976 261.0382 L 15.9881 260.0115 L 19.7241 258.8056 L 109.671 239.3925 L 84.6877 242.0378 L 83.6351 242.044 L 83.632 242.0443 L 83.6281 242.044 L 80.762 242.0607 L 78.4913 241.5943 L 74.6481 241.2579 L 73.2761 240.5232 L 71.9281 240.2464 L 69.126 238.3009 L 64.6379 235.8976 L 64.0463 234.7743 L 62.6007 233.7706 L 60.0524 227.19 L 57.6619 222.6504 L 57.7255 221.1809 L 57.1943 219.8091 L 58.004 214.7429 L 58.309 207.6927 L 59.3567 206.2788 L 59.557 205.0251 L 63.0383 201.3103 L 65.0692 198.5694 L 66.2574 197.8751 L 67.3215 196.7396 L 70.8542 195.1893 L 72.8558 194.0198 L 75.5761 193.1171 L 75.5796 193.1155 L 75.5827 193.1149 L 76.5817 192.7834 L 348.7477 131.712 L 350.6023 129.2771 L 351.8547 128.5674 L 352.9926 127.3979 L 356.4908 125.9403 L 358.4484 124.831 L 362.1904 123.644 L 390.7189 117.638 L 391.6519 117.537 L 392.5651 117.321 L 437.1189 111.3805 L 471.1652 105.4594 L 473.2083 105.311 L 474.2014 105.2035 L 474.4052 105.224 L 475.0807 105.175 L 478.3546 105.6225 L 483.1742 106.1088 L 483.5891 106.3381 L 484.0158 106.3965 L 485.1707 107.089 L 506.2077 103.875 L 506.9925 103.8342 L 507.7644 103.6869 L 652.4842 90.7911 L 652.9504 90.5289 L 654.2377 90.6348 L 657.1724 90.3733 L 661.0979 90.4157 L 666.6778 91.6586 L 667.8716 91.7569 L 668.2237 92.003 L 669.9004 92.3765 L 679.119 99.0063 L 679.4226 99.8308 L 680.1428 100.3342 L 684.2095 110.936 L 684.1442 112.6526 L 684.2926 113.0557 L 684.084 114.2353 L 683.8666 119.9478 L 682.9091 123.7549 L 681.9096 126.5265 L 681.6846 127.7985 L 681.3125 128.1826 L 677.7561 138.0451 L 778.9807 120.4731 L 781.3823 120.2994 L 782.7365 120.1927 L 782.7796 120.1983 L 782.8962 120.1899 L 786.5227 120.6868 L 791.679 121.3596 L 791.753 121.4034 L 791.831 121.4141 L 795.9112 123.8625 L 801.4528 127.1398 L 801.4846 127.207 L 801.5675 127.2568 L 805.1018 134.8458 L 807.8603 140.6711 L 807.8532 140.7537 L 807.8882 140.8288 L 807.2955 147.2469 L 807.0607 149.9817 L 972.1336 117.5701 L 972.6551 117.5208 L 973.1624 117.3903 L 978.4134 116.5854 L 991.7749 113.3745 L 1083.5965 88.4515 L 1089.8698 69.6314 L 1091.4757 66.0492 L 1092.423 64.7494 L 1092.7857 63.6696 L 1093.9567 62.645 L 1096.7873 58.7611 L 1101.8114 55.7721 L 1102.5069 55.1636 L 1102.1877 41.1205 L 1101.7326 40.2081 L 1102.14 37.1352 L 1102.4086 33.6505 L 1102.7613 32.4482 L 1103.2248 28.9516 L 1104.3352 27.0827 L 1104.947 24.9968 L 1107.1913 22.2756 L 1107.8313 21.1985 L 1110.1995 18.6281 L 1112.1717 16.2367 L 1113.1497 15.9484 L 1124.0048 6.2993 L 1127.1839 3.9961 L 1129.8146 2.8258 L 1132.5279 0.7265 L 1134.8711 0.5762 L 1135.4236 0.3304 L 1139.6457 0.2701 L 1143.8597 0 L 1144.4297 0.2018 L 1146.7775 0.1682 L 1149.6467 2.0489 L 1152.3608 3.0098 L 1155.7104 5.0573 L 1205.2599 42.5948 L 1208.1377 45.265 L 1208.3532 45.5704 L 1208.6427 45.8069 L 1211.1037 48.8654 L 1243.2445 98.148 L 1244.4344 98.2065 L 1245.622 99.0974 L 1245.9908 99.1592 L 1255.5478 105.2912 L 1256.3421 107.1396 L 1256.4106 107.191 L 1258.9151 113.1272 L 1261.4588 119.0466 L 1261.4483 119.1316 L 1262.2304 120.9853 L 1262.0188 122.0553 L 1274.2417 119.6107 L 1274.494 119.4776 L 1275.1912 119.4208 L 1276.8522 119.0886 L 1280.7592 118.7056 L 1282.1189 118.8567 L 1283.4825 118.7456 L 1285.0136 118.9414 L 1285.7977 118.1355 L 1287.4889 117.4309 L 1287.6404 117.3345 L 1288.4192 117.0432 L 1296.2792 113.7682 L 1298.9459 114.3079 L 1307.43 114.7017 L 1309.8646 116.5176 L 1310.9534 116.738 L 1315.0422 120.3795 L 1319.431 123.6531 L 1319.8657 124.6755 L 1322.1338 126.6955 L 1324.2244 134.9274 L 1325.2889 137.4313 L 1325.264 137.5593 L 1330.5995 143.6571 L 1332.3065 146.0524 L 1333.6601 147.6197 L 1334.8767 151.4434 L 1335.5994 153.1025 L 1348.2034 151.7739 L 1349.4121 151.7675 L 1349.5703 151.7503 L 1349.7244 151.7658 L 1352.1291 151.7529 L 1354.551 152.2515 L 1358.5433 152.6533 L 1359.756 153.3231 L 1360.9621 153.5714 L 1363.8908 155.6067 L 1368.4831 158.143 L 1369.0009 159.158 L 1370.2866 160.0515 L 1372.8863 166.7745 L 1375.2865 171.4796 L 1375.2128 172.7907 L 1375.6864 174.0155 L 1374.8504 179.2308 L 1374.4455 186.4276 L 1373.4971 187.6734 L 1373.3168 188.7985 L 1369.7277 192.6248 L 1367.5674 195.4625 L 1366.4962 196.0699 L 1365.5484 197.0803 L 1361.8734 198.691 L 1359.7224 199.9107 L 1357.4304 200.6383 L 1357.2886 200.7005 L 1357.1327 200.7328 L 1355.9807 201.0986 L 1337.3464 205.0266 L 1339.664 228.2026 L 1339.664 229.4495 L 1339.7881 230.6902 L 1339.7881 235.1315 L 1372.6016 233.1342 L 1385.8149 209.9108 L 1386.1751 208.8902 L 1387.4016 207.5566 L 1388.4234 206.1161 L 1390.4307 204.2631 L 1392.28 202.2524 L 1393.7185 201.2279 L 1395.0498 199.999 L 1396.0698 199.6369 L 1405.9882 193.9692 L 1407.0544 193.4937 L 1407.317 193.2621 L 1407.778 193.171 L 1409.5736 192.3703 L 1418.3917 190.4807 L 1419.9037 190.7765 L 1422.005 190.3615 L 1425.6512 191.901 L 1429.5355 192.661 L 1431.0465 194.179 L 1432.4659 194.7783 L 1438.7242 201.2715 L 1439.7663 202.9387 L 1440.0978 203.2718 L 1440.1862 203.6106 L 1440.8049 204.6005 L 1503.8679 332.2281 L 1505.2482 335.9032 L 1506.2079 342.216 L 1506.9718 344.9527 L 1505.1772 350.3267 L 1503.7567 355.8114 L 1501.626 357.6911 L 1497.384 362.4637 L 1494.2254 364.795 L 1426.536 405.0163 L 1515.5146 397.9607 L 1519.4395 398.0413 L 1520.1631 398.2099 L 1522.4456 398.1799 L 1525.5772 399.4714 L 1528.2225 400.0878 L 1529.698 401.1709 L 1532.9429 402.5092 L 1534.2893 404.5413 L 1537.3761 406.8072 L 1539.2308 411.9994 L 1541.2123 414.9899 L 1541.3867 418.0345 L 1542.4126 420.9063 L 1541.7533 424.4325 L 1542.0686 429.9371 L 1540.109 433.2268 L 1539.661 435.623 L 1537.1942 438.12 L 1536.2575 439.6925 L 1534.0615 441.2911 L 1531.6808 443.7009 L 1529.5671 444.5628 L 1528.9665 445.0001 L 1525.3833 446.604 L 1401.02 487.9818 Z M 463.1408 519.8373 L 461.972 519.0229 L 459.3772 512.2882 L 428.2239 510.1913 L 440.6693 525.8091 L 463.4018 520.3624 Z M 1193.1179 760.4389 L 1187.4067 738.1251 L 1187.8428 771.2742 Z M 590.0849 146.5495 L 621.7349 146.0038 L 622.5824 143.6537 Z M 1267.9762 236.8262 L 1267.9696 236.8198 L 1267.9653 236.8136 L 1267.9604 236.8079 L 1267.956 236.7998 L 1265.7684 233.5692 L 1263.9669 230.2364 L 1250.1663 240.5868 L 1270.1628 239.3696 Z M 1219.6173 242.1292 L 1219.3193 242.4645 L 1220.1659 242.4129 Z M 1171.5996 79.8226 L 1152.7557 65.547 L 1153.3064 89.777 L 1175.8391 86.3231 Z M 530.5863 805.1473 L 536.4175 803.2229 L 508.0646 671.3819 L 508.0415 671.1769 L 507.7182 670.5318 L 466.7094 671.0059 Z M 376.5321 597.9307 L 372.3708 593.5885 L 249.8582 622.9423 L 249.2699 623.5163 L 387.9523 621.9131 Z M 327.706 546.9817 L 319.7006 554.793 L 332.2991 551.7744 Z M 246.7544 556.112 L 284.8286 518.9608 L 245.9545 498.517 Z M 134.1253 503.7585 L 106.8625 505.9493 L 106.3336 605.9154 L 168.792 590.9505 Z M 105.8697 693.5813 L 124.9569 674.9568 L 105.9671 675.1764 Z M 186.2665 499.5686 L 196.3153 524.8429 L 195.9534 498.7902 Z M 1409.6517 356.8881 L 1409.0181 357.024 L 1408.7749 357.1181 L 1407.9788 357.2471 L 1406.1642 357.6365 L 1323.5354 366.9075 L 1283.7638 397.4439 L 1282.8758 416.4079 L 1313.5819 413.973 Z M 1448.7906 333.6316 L 1420.2601 275.8913 L 1419.94 276.0655 L 1418.6842 277.291 L 1415.2523 278.6175 L 1413.3731 279.6405 L 1409.6115 280.7637 L 1402.2175 282.1894 L 1387.1119 308.7386 L 1401.8537 307.8388 L 1403.7082 307.9107 L 1404.5146 307.9009 L 1404.7704 307.9518 L 1405.7765 307.9908 L 1408.7957 308.7524 L 1413.3597 309.6601 L 1413.9225 310.0456 L 1414.5209 310.1966 L 1417.8686 312.749 L 1422.7274 316.0774 L 1422.9394 316.615 L 1423.5508 317.0811 L 1426.0524 324.5072 L 1428.2208 330.0049 L 1428.1218 330.6505 L 1428.3303 331.2694 L 1427.1388 337.058 L 1425.9505 344.8035 L 1425.4283 345.3677 L 1425.3118 345.9337 L 1421.0972 350.0476 L 1421.0159 350.1354 Z M 1312.9249 299.4582 L 1313.2167 299.9339 L 1313.8764 300.2733 L 1317.6517 307.1644 L 1318.1616 307.9957 L 1334.8557 295.178 L 1312.9316 299.4054 L 1312.8741 299.4351 Z M 579.7487 766.8973 L 661.107 719.7532 L 662.7573 718.5403 L 664.1791 716.2056 L 625.0023 726.5793 L 590.2563 754.6434 L 589.3786 755.2181 L 588.293 756.3097 L 578.3366 760.3309 Z M 636.6413 669.0414 L 635.0163 672.2045 L 647.433 668.9166 Z M 565.8691 669.8596 L 560.0057 675.0921 L 565.1146 698.8489 L 580.0927 669.6951 Z M 842.9734 673.6535 L 836.9061 675.6722 L 831.1667 678.998 Z M 434.0333 602.3861 L 435.7878 606.0706 L 444.0825 601.5983 L 441.1608 601.0497 Z " stroke-width="0.5" fill="#170f27" stroke="none"/></g></g></svg>